<svg width="24" height="24" viewBox="0 0 24 24" fill="none" xmlns="http://www.w3.org/2000/svg">
<path d="M2.85714 0C1.27886 0 0 1.27886 0 2.85714C0 4.43543 1.27886 5.71429 2.85714 5.71429C4.43543 5.71429 5.71429 4.43543 5.71429 2.85714C5.71429 1.27886 4.43543 0 2.85714 0ZM12 0C10.4217 0 9.14286 1.27886 9.14286 2.85714C9.14286 4.43543 10.4217 5.71429 12 5.71429C13.5783 5.71429 14.8571 4.43543 14.8571 2.85714C14.8571 1.27886 13.5783 0 12 0ZM21.1429 0C19.5646 0 18.2857 1.27886 18.2857 2.85714C18.2857 4.43543 19.5646 5.71429 21.1429 5.71429C22.7211 5.71429 24 4.43543 24 2.85714C24 1.27886 22.7211 0 21.1429 0ZM2.85714 9.14286C1.27886 9.14286 0 10.4217 0 12C0 13.5783 1.27886 14.8571 2.85714 14.8571C4.43543 14.8571 5.71429 13.5783 5.71429 12C5.71429 10.4217 4.43543 9.14286 2.85714 9.14286ZM12 9.14286C10.4217 9.14286 9.14286 10.4217 9.14286 12C9.14286 13.5783 10.4217 14.8571 12 14.8571C13.5783 14.8571 14.8571 13.5783 14.8571 12C14.8571 10.4217 13.5783 9.14286 12 9.14286ZM21.1429 9.14286C19.5646 9.14286 18.2857 10.4217 18.2857 12C18.2857 13.5783 19.5646 14.8571 21.1429 14.8571C22.7211 14.8571 24 13.5783 24 12C24 10.4217 22.7211 9.14286 21.1429 9.14286ZM2.85714 18.2857C1.27886 18.2857 0 19.5646 0 21.1429C0 22.7211 1.27886 24 2.85714 24C4.43543 24 5.71429 22.7211 5.71429 21.1429C5.71429 19.5646 4.43543 18.2857 2.85714 18.2857ZM12 18.2857C10.4217 18.2857 9.14286 19.5646 9.14286 21.1429C9.14286 22.7211 10.4217 24 12 24C13.5783 24 14.8571 22.7211 14.8571 21.1429C14.8571 19.5646 13.5783 18.2857 12 18.2857ZM21.1429 18.2857C19.5646 18.2857 18.2857 19.5646 18.2857 21.1429C18.2857 22.7211 19.5646 24 21.1429 24C22.7211 24 24 22.7211 24 21.1429C24 19.5646 22.7211 18.2857 21.1429 18.2857Z" fill="white"/>
</svg>
