<svg width="28" height="24" viewBox="0 0 28 24" fill="none" xmlns="http://www.w3.org/2000/svg">
<path d="M25.1429 4.57143H21.4423C20.6126 4.57143 19.9017 3.97714 19.7554 3.16L19.5257 1.88229C19.3291 0.792 18.3829 0 17.2754 0H10.1531C9.04686 0 8.09943 0.792 7.904 1.88114L7.67429 3.16C7.528 3.97714 6.81714 4.57143 5.98743 4.57143H2.28571C1.02286 4.57143 0 5.59429 0 6.85714V21.7143C0 22.9771 1.02286 24 2.28571 24H25.1429C26.4057 24 27.4286 22.9771 27.4286 21.7143V6.85714C27.4286 5.59429 26.4057 4.57143 25.1429 4.57143ZM13.7143 20.5714C9.92686 20.5714 6.85714 17.5017 6.85714 13.7143C6.85714 9.92686 9.92686 6.85714 13.7143 6.85714C17.5017 6.85714 20.5714 9.92686 20.5714 13.7143C20.5714 17.5017 17.5017 20.5714 13.7143 20.5714ZM13.7143 18.2857C11.1897 18.2857 9.14286 16.2389 9.14286 13.7143C9.14286 11.1897 11.1897 9.14286 13.7143 9.14286C16.2389 9.14286 18.2857 11.1897 18.2857 13.7143C18.2857 16.2389 16.2389 18.2857 13.7143 18.2857Z" fill="white"/>
</svg>
