<svg id="Layer_1" enable-background="new 0 0 512 512" height="512" viewBox="0 0 512 512" width="512" xmlns="http://www.w3.org/2000/svg" xmlns:xlink="http://www.w3.org/1999/xlink"><linearGradient id="SVGID_1_" gradientUnits="userSpaceOnUse" x1="74.981" x2="437.02" y1="437.019" y2="74.98"><stop offset="0" stop-color="#364aff"/><stop offset="1" stop-color="#fc54ff"/></linearGradient><radialGradient id="SVGID_2_" cx="258.029" cy="274.253" gradientUnits="userSpaceOnUse" r="288.777"><stop offset="0" stop-color="#8d00db" stop-opacity=".66"/><stop offset=".2069" stop-color="#9f0de1" stop-opacity=".523"/><stop offset=".6178" stop-color="#cc30f0" stop-opacity=".252"/><stop offset="1" stop-color="#fc54ff" stop-opacity="0"/></radialGradient><linearGradient id="lg1"><stop offset="0" stop-color="#b31de7"/><stop offset=".9895" stop-color="#fda0ff"/></linearGradient><linearGradient id="SVGID_3_" gradientUnits="userSpaceOnUse" x1="74.489" x2="296.903" xlink:href="#lg1" y1="306.976" y2="84.562"/><linearGradient id="SVGID_4_" gradientUnits="userSpaceOnUse" x1="90.492" x2="306.646" xlink:href="#lg1" y1="257.723" y2="41.569"/><linearGradient id="SVGID_5_" gradientUnits="userSpaceOnUse" x1="77.303" x2="363.399" xlink:href="#lg1" y1="358.05" y2="71.954"/><linearGradient id="SVGID_6_" gradientUnits="userSpaceOnUse" x1="117.106" x2="363.345" xlink:href="#lg1" y1="277.122" y2="30.883"/><linearGradient id="SVGID_7_" gradientUnits="userSpaceOnUse" x1="256" x2="256" y1="180.313" y2="92.238"><stop offset="0" stop-color="#8d00db" stop-opacity=".8"/><stop offset=".1209" stop-color="#ad18e5" stop-opacity=".703"/><stop offset=".2589" stop-color="#c92eef" stop-opacity=".593"/><stop offset=".4069" stop-color="#e03ff6" stop-opacity=".475"/><stop offset=".5673" stop-color="#f04bfb" stop-opacity=".346"/><stop offset=".7494" stop-color="#f952fe" stop-opacity=".2"/><stop offset="1" stop-color="#fc54ff" stop-opacity="0"/></linearGradient><linearGradient id="lg2"><stop offset="0" stop-color="#b31de7"/><stop offset="1" stop-color="#fda0ff"/></linearGradient><linearGradient id="SVGID_8_" gradientUnits="userSpaceOnUse" x1="293.468" x2="533.803" xlink:href="#lg2" y1="453.166" y2="212.83"/><linearGradient id="SVGID_9_" gradientUnits="userSpaceOnUse" x1="266.274" x2="484.499" xlink:href="#lg2" y1="447.985" y2="229.76"/><linearGradient id="SVGID_10_" gradientUnits="userSpaceOnUse" x1="-324.179" x2="496.978" xlink:href="#lg2" y1="705.617" y2="-115.54"/><linearGradient id="SVGID_11_" gradientUnits="userSpaceOnUse" x1="-155.176" x2="161.872" xlink:href="#lg2" y1="480.235" y2="163.188"/><linearGradient id="lg3"><stop offset="0" stop-color="#fc54ff"/><stop offset=".4062" stop-color="#fd9bff"/><stop offset="1" stop-color="#fff"/></linearGradient><linearGradient id="SVGID_12_" gradientUnits="userSpaceOnUse" x1="10.214" x2="413.787" xlink:href="#lg3" y1="662.551" y2="258.977"/><linearGradient id="SVGID_13_" gradientUnits="userSpaceOnUse" x1="-370.606" x2="430.506" xlink:href="#lg3" y1="794.11" y2="-7.003"/><linearGradient id="SVGID_14_" gradientUnits="userSpaceOnUse" x1="-364.594" x2="441.551" xlink:href="#lg3" y1="917.421" y2="111.277"/><linearGradient id="SVGID_15_" gradientUnits="userSpaceOnUse" x1="199.842" x2="457.083" xlink:href="#lg3" y1="457.688" y2="200.447"/><g><circle cx="256" cy="256" fill="url(#SVGID_1_)" r="256"/><circle cx="256" cy="256" fill="url(#SVGID_2_)" r="256"/><path d="m286 79.643c-10-.053-20-.08-30-.08v46.125c15.184 0 30.367.043 45.551.129-.102-10.239-.218-20.477-.347-30.715-.114-8.48-6.927-15.414-15.204-15.459z" fill="url(#SVGID_3_)"/><path d="m256 79.563c-10 0-20 .027-30 .08-8.277.045-15.09 6.978-15.204 15.458-.129 10.239-.245 20.477-.347 30.715 20.245-.115 40.49-.153 60.735-.115-.034-10.249-.073-20.497-.116-30.746-.043-8.488-6.791-15.393-15.068-15.392z" fill="url(#SVGID_4_)"/><path d="m286.259 110.378c-5.043-.021-10.086-.038-15.129-.049-9.99 25.6-20.201 51.235-30.463 76.865 20.444-.018 40.889 0 61.333.053-.095-20.477-.245-40.954-.449-61.431-.09-8.48-6.943-15.402-15.292-15.438z" fill="url(#SVGID_5_)"/><path d="m225.742 110.378c-8.349.036-15.203 6.959-15.293 15.439-.204 20.477-.354 40.954-.449 61.431 20.444-.054 40.889-.071 61.333-.053-.04-25.622-.108-51.244-.204-76.865-15.129-.034-30.258-.017-45.387.048z" fill="url(#SVGID_6_)"/><path d="m286.259 110.378c-20.172-.087-40.345-.087-60.517 0-8.349.036-15.203 6.959-15.293 15.439-.204 20.477-.354 40.954-.449 61.431 30.667-.08 61.333-.08 92 0-.095-20.477-.245-40.954-.449-61.431-.09-8.481-6.943-15.403-15.292-15.439z" fill="url(#SVGID_7_)"/><path d="m394 294.27c15.048 20.173 29.837 40.188 44.204 59.976 16.747-.401 31.011-14.199 31.605-30.746.349-10 .635-20 .857-30-25.555.313-51.11.569-76.666.77z" fill="url(#SVGID_8_)"/><path d="m455.599 203.371c-8.479-.074-15.256 6.636-15.19 14.98-15.245 15.031-30.643 30.208-46.102 45.479 15.245 20.242 30.286 40.337 44.959 60.217 16.85-.299 31.023-14.001 31.401-30.547.556-25 .714-50 .476-75-.08-8.278-7.067-15.056-15.544-15.129z" fill="url(#SVGID_9_)"/><path d="m41.333 293.5c.222 10 .508 20 .857 30 .594 16.545 14.859 30.345 31.605 30.746 9.306-19.903 18.966-39.948 28.871-60.103-20.444-.179-40.888-.393-61.333-.643z" fill="url(#SVGID_10_)"/><path d="m56.401 203.371c-8.477.073-15.465 6.851-15.544 15.129-.238 25-.079 50 .476 75 .378 16.545 14.551 30.248 31.401 30.547 9.583-19.964 19.483-40.065 29.592-60.272-10.347-15.222-20.612-30.371-30.735-45.425.067-8.343-6.711-15.053-15.19-14.979z" fill="url(#SVGID_11_)"/><path d="m393.755 172.51c-10.204-.103-20.408-.195-30.612-.275 1.071 76.406.357 152.812-2.143 229.219 10-.188 20-.402 30-.643 24.779-.635 46.136-21.592 47.204-46.564 1.837-45.298 2.571-90.597 2.204-135.895-.218-24.974-21.329-45.547-46.653-45.842z" fill="url(#SVGID_12_)"/><path d="m118.245 172.51c-25.324.295-46.435 20.868-46.653 45.841-.367 45.299.367 90.597 2.204 135.895 1.068 24.97 22.425 45.929 47.204 46.564 17.5.422 35 .762 52.5 1.02-1.964-76.586-2.526-153.171-1.684-229.757-17.857.111-35.714.256-53.571.437z" fill="url(#SVGID_13_)"/><path d="m363.143 172.235c-63.776-.502-127.551-.556-191.326-.161-25.326.181-46.278 20.858-46.439 46.072-.26 45.71.26 91.421 1.561 137.131.774 25.211 21.781 46.164 46.561 46.554 27.369-4.701 54.875-9.642 82.5-14.767 27.625 5.125 55.131 10.067 82.5 14.767 7.5-.111 15-.236 22.5-.377 24.78-.494 45.937-21.458 46.837-46.576 1.531-45.551 2.143-91.102 1.837-136.653-.186-25.12-21.206-45.76-46.531-45.99z" fill="url(#SVGID_14_)"/><path d="m317.672 380.404c-5.566-5.702-13.227-8.877-21.253-8.833-26.946.155-53.892.155-80.838 0-8.026-.046-15.687 3.131-21.253 8.833-6.996 7.166-13.942 14.31-20.828 21.426 55 .81 110 .81 165 0-6.886-7.116-13.832-14.26-20.828-21.426z" fill="url(#SVGID_15_)"/></g></svg>