<svg width="146" height="128" viewBox="0 0 146 128" fill="none" xmlns="http://www.w3.org/2000/svg">
<path d="M4.48442 71.8992C1.70327 67.0003 1.70327 60.9997 4.48442 56.1008L31.7344 8.10083C34.577 3.09367 39.8908 -3.8147e-06 45.6486 -3.8147e-06H99.6848C105.443 -3.8147e-06 110.756 3.09367 113.599 8.10083L140.849 56.1008C143.63 60.9997 143.63 67.0003 140.849 71.8992L113.599 119.899C110.756 124.906 105.443 128 99.6848 128H45.6485C39.8908 128 34.577 124.906 31.7344 119.899L4.48442 71.8992Z" fill="#EDF2F4"/>
<g filter="url(#filter0_f)">
<path fill-rule="evenodd" clip-rule="evenodd" d="M59.0859 24.1008C56.3047 28.9998 56.3047 35.0002 59.0859 39.8992L68.1689 55.8992C71.0117 60.9064 76.3252 64 82.083 64H99.7861C105.544 64 110.857 60.9064 113.7 55.8992L118.102 48.1469L104.45 24.1008C101.607 19.0936 96.2939 16 90.5361 16H63.6846L59.0859 24.1008Z" fill="#1da1f2"/>
</g>
<g filter="url(#filter1_f)">
<path fill-rule="evenodd" clip-rule="evenodd" d="M72.6543 112H54.5615C48.8037 112 43.4902 108.906 40.6475 103.899L31.7002 88.1398L31.7227 88.1008C34.5654 83.0936 39.8789 80 45.6367 80H54.2559C60.0137 80 65.3271 83.0936 68.1699 88.1008L72.7119 96.1008C75.4932 101 75.4932 107 72.7119 111.899L72.6543 112Z" fill="#1da1f2"/>
</g>
<path d="M22.4844 71.8992C19.7033 67.0003 19.7033 60.9997 22.4844 56.1008L40.6511 24.1008C43.4937 19.0937 48.8074 16 54.5652 16H90.4348C96.1926 16 101.506 19.0937 104.349 24.1008L122.516 56.1008C125.297 60.9997 125.297 67.0003 122.516 71.8992L104.349 103.899C101.506 108.906 96.1926 112 90.4348 112H54.5652C48.8074 112 43.4937 108.906 40.6511 103.899L22.4844 71.8992Z" fill="white" fill-opacity="0.64"/>
<path fill-rule="evenodd" clip-rule="evenodd" d="M31.7041 88.1398L27.1846 96.1008C24.4033 101 24.4033 107 27.1846 111.899L31.7266 119.899C34.5693 124.906 39.8828 128 45.6406 128H54.2598C60.0176 128 65.3311 124.906 68.1738 119.899L72.6582 112H54.5654C48.8076 112 43.4941 108.906 40.6514 103.899L31.7041 88.1398Z" fill="#1da1f2"/>
<path fill-rule="evenodd" clip-rule="evenodd" d="M63.583 16H90.4346C96.1924 16 101.506 19.0936 104.349 24.1008L118 48.1469L122.683 39.8992C125.464 35.0002 125.464 28.9998 122.683 24.1008L113.599 8.10083C110.756 3.09363 105.442 0 99.6846 0H81.9814C76.2236 0 70.9102 3.09363 68.0674 8.10083L63.583 16Z" fill="#1da1f2"/>
<defs>
<filter id="filter0_f" x="49" y="8" width="77.1016" height="64" filterUnits="userSpaceOnUse" color-interpolation-filters="sRGB">
<feFlood flood-opacity="0" result="BackgroundImageFix"/>
<feBlend mode="normal" in="SourceGraphic" in2="BackgroundImageFix" result="shape"/>
<feGaussianBlur stdDeviation="4" result="effect1_foregroundBlur"/>
</filter>
<filter id="filter1_f" x="23.7002" y="72" width="59.0977" height="48" filterUnits="userSpaceOnUse" color-interpolation-filters="sRGB">
<feFlood flood-opacity="0" result="BackgroundImageFix"/>
<feBlend mode="normal" in="SourceGraphic" in2="BackgroundImageFix" result="shape"/>
<feGaussianBlur stdDeviation="4" result="effect1_foregroundBlur"/>
</filter>
</defs>
</svg>
