<svg height="512" viewBox="0 0 64 64" width="512" xmlns="http://www.w3.org/2000/svg"><g id="Crypto_vault" data-name="Crypto vault"><path d="m8 17h5v2h-5z" fill="#4e901e"/><path d="m56 19h-5v-2h5" fill="#4e901e"/><path d="m56 47h-5v-2h5" fill="#5eac24"/><path d="m13 47h-5v-2h5" fill="#5eac24"/><circle cx="58" cy="18" fill="#5eac24" r="3"/><circle cx="32" cy="6" fill="#7ed63e" r="3"/><circle cx="58" cy="6" fill="#7ed63e" r="3"/><circle cx="58" cy="46" fill="#7ed63e" r="3"/><rect fill="#ffcd00" height="28" rx="4" width="28" x="18" y="18"/><path d="m44 44h-20a4 4 0 0 1 -4-4v-20a3.984 3.984 0 0 1 .359-1.641 3.993 3.993 0 0 0 -2.359 3.641v20a4 4 0 0 0 4 4h20a3.993 3.993 0 0 0 3.641-2.359 3.984 3.984 0 0 1 -1.641.359z" fill="#ddb200"/><path d="m32 27a5.022 5.022 0 0 1 3.54 1.46l3.53-3.53a9.995 9.995 0 0 0 -14.14 0l3.53 3.53a5.022 5.022 0 0 1 3.54-1.46z" fill="#ffa733"/><path d="m37 32a5.022 5.022 0 0 1 -1.46 3.54l3.53 3.53a9.995 9.995 0 0 0 0-14.14l-3.53 3.53a5.022 5.022 0 0 1 1.46 3.54z" fill="#ffb655"/><path d="m27 32a5.022 5.022 0 0 1 1.46-3.54l-3.53-3.53a9.995 9.995 0 0 0 0 14.14l3.53-3.53a5.022 5.022 0 0 1 -1.46-3.54z" fill="#ffb655"/><path d="m39.07 39.07-3.53-3.53a5.022 5.022 0 0 1 -7.08 0l-3.53 3.53a9.995 9.995 0 0 0 14.14 0z" fill="#ffa733"/><path d="m35.54 28.46-2.13 2.13a1.98 1.98 0 0 1 0 2.82l2.13 2.13a5.022 5.022 0 0 0 0-7.08z" fill="#ffa733"/><path d="m32 34a1.955 1.955 0 0 1 -1.41-.59l-2.13 2.13a5.022 5.022 0 0 0 7.08 0l-2.13-2.13a1.955 1.955 0 0 1 -1.41.59z" fill="#ffb655"/><path d="m32 30a1.955 1.955 0 0 1 1.41.59l2.13-2.13a5.022 5.022 0 0 0 -7.08 0l2.13 2.13a1.955 1.955 0 0 1 1.41-.59z" fill="#ffb655"/><path d="m30.59 30.59a1.98 1.98 0 1 0 1.41-.59 1.955 1.955 0 0 0 -1.41.59z" fill="#ff5023"/><path d="m30 32a1.955 1.955 0 0 1 .59-1.41l-2.13-2.13a5.022 5.022 0 0 0 0 7.08l2.13-2.13a1.955 1.955 0 0 1 -.59-1.41z" fill="#ffa733"/><circle cx="6" cy="6" fill="#7ed63e" r="3"/><circle cx="32" cy="58" fill="#5eac24" r="3"/><circle cx="58" cy="58" fill="#5eac24" r="3"/><circle cx="6" cy="58" fill="#5eac24" r="3"/><circle cx="6" cy="18" fill="#7ed63e" r="3"/><circle cx="6" cy="46" fill="#7ed63e" r="3"/><path d="m52 31h3v2h-3z" fill="#7ed63e"/><path d="m40.45 24.965 1.257-1.258a1 1 0 0 0 -1.414-1.414l-1.258 1.257a10.979 10.979 0 0 0 -14.07 0l-1.258-1.257a1 1 0 0 0 -1.414 1.414l1.257 1.258a10.979 10.979 0 0 0 0 14.07l-2.257 2.258a1 1 0 1 0 1.414 1.414l2.258-2.257a10.979 10.979 0 0 0 14.07 0l1.258 1.257a1 1 0 0 0 1.414-1.414l-1.257-1.258a10.979 10.979 0 0 0 0-14.07zm-8.45-1.965a8.923 8.923 0 0 1 5.614 1.972l-2.139 2.139a5.986 5.986 0 0 0 -6.949 0l-2.14-2.14a8.923 8.923 0 0 1 5.614-1.971zm4 9a3.992 3.992 0 0 1 -.563 2.023l-.737-.737a2.913 2.913 0 0 0 0-2.573l.736-.736a4 4 0 0 1 .564 2.023zm-8 0a3.992 3.992 0 0 1 .563-2.023l.737.737a2.913 2.913 0 0 0 0 2.573l-.735.735a3.981 3.981 0 0 1 -.565-2.022zm4.694.712a.991.991 0 0 1 -1.406-.018.98.98 0 0 1 0-1.388l.012-.006.007-.011a.991.991 0 0 1 1.406.018.98.98 0 0 1 0 1.388l-.013.005-.007.011zm.581-3.4a3.13 3.13 0 0 0 -2.55 0l-.747-.747a3.911 3.911 0 0 1 4.045 0zm-2.561 5.388a2.906 2.906 0 0 0 2.572 0l.736.736a3.911 3.911 0 0 1 -4.045 0zm-7.714-2.7a8.923 8.923 0 0 1 1.972-5.614l2.139 2.139a5.986 5.986 0 0 0 0 6.949l-2.14 2.14a8.923 8.923 0 0 1 -1.971-5.614zm9 9a8.923 8.923 0 0 1 -5.614-1.972l2.139-2.139a5.986 5.986 0 0 0 6.949 0l2.14 2.14a8.923 8.923 0 0 1 -5.614 1.971zm4.889-5.525a5.99 5.99 0 0 0 0-6.95l2.139-2.139a8.977 8.977 0 0 1 0 11.228z" fill="#ff9811"/><path d="m48 5h4v2h-4z" fill="#5eac24"/><path d="m38 5h4v2h-4z" fill="#5eac24"/><path d="m44 5h2v2h-2z" fill="#5eac24"/><path d="m12 5h4v2h-4z" fill="#5eac24"/><path d="m22 5h4v2h-4z" fill="#5eac24"/><path d="m18 5h2v2h-2z" fill="#5eac24"/><g fill="#4e901e"><path d="m48 57h4v2h-4z"/><path d="m38 57h4v2h-4z"/><path d="m44 57h2v2h-2z"/><path d="m12 57h4v2h-4z"/><path d="m22 57h4v2h-4z"/><path d="m18 57h2v2h-2z"/></g><path d="m47 45h2v2h-2z" fill="#5eac24"/><path d="m47 17h2v2h-2z" fill="#4e901e"/><path d="m48 31h2v2h-2z" fill="#7ed63e"/><path d="m9 31h3v2h-3z" fill="#7ed63e"/><path d="m15 45h2v2h-2z" fill="#5eac24"/><path d="m15 17h2v2h-2z" fill="#4e901e"/><path d="m14 31h2v2h-2z" fill="#7ed63e"/><path d="m57 31h5v2h-5z" fill="#7ed63e"/><path d="m2 31h5v2h-5z" fill="#7ed63e"/></g></svg>