<svg width="146" height="128" viewBox="0 0 146 128" fill="none" xmlns="http://www.w3.org/2000/svg">
<path d="M140.849 71.8992C143.63 67.0003 143.63 60.9997 140.849 56.1008L113.599 8.10083C110.756 3.09367 105.442 -3.8147e-06 99.6844 -3.8147e-06H45.6482C39.8904 -3.8147e-06 34.5767 3.09367 31.7341 8.10083L4.48409 56.1008C1.70294 60.9997 1.70294 67.0003 4.48409 71.8992L31.7341 119.899C34.5767 124.906 39.8904 128 45.6482 128H99.6845C105.442 128 110.756 124.906 113.599 119.899L140.849 71.8992Z" fill="#EDF2F4"/>
<g filter="url(#filter0_f)">
<path fill-rule="evenodd" clip-rule="evenodd" d="M86.2471 24.1008C89.0283 28.9997 89.0283 35.0003 86.2471 39.8992L77.1638 55.8992C74.3212 60.9063 69.0075 64 63.2497 64H45.5468C39.789 64 34.4753 60.9063 31.6327 55.8992L27.2316 48.1468L40.8827 24.1008C43.7253 19.0937 49.039 16 54.7968 16H81.6482L86.2471 24.1008Z" fill="#1da1f2"/>
</g>
<g filter="url(#filter1_f)">
<path fill-rule="evenodd" clip-rule="evenodd" d="M72.6785 112H90.7719C96.5296 112 101.843 108.906 104.686 103.899L113.633 88.1396L113.611 88.1008C110.768 83.0937 105.454 80 99.6967 80H91.0771C85.3193 80 80.0056 83.0937 77.163 88.1008L72.6213 96.1008C69.8402 101 69.8402 107 72.6213 111.899L72.6785 112Z" fill="#1da1f2"/>
</g>
<path d="M122.849 71.8992C125.63 67.0003 125.63 60.9997 122.849 56.1008L104.682 24.1008C101.839 19.0937 96.5256 16 90.7678 16H54.8982C49.1405 16 43.8267 19.0937 40.9841 24.1008L22.8174 56.1008C20.0363 60.9997 20.0363 67.0003 22.8174 71.8992L40.9841 103.899C43.8267 108.906 49.1405 112 54.8982 112H90.7678C96.5256 112 101.839 108.906 104.682 103.899L122.849 71.8992Z" fill="white" fill-opacity="0.64"/>
<path fill-rule="evenodd" clip-rule="evenodd" d="M113.629 88.1396L118.149 96.1009C120.93 101 120.93 107 118.149 111.899L113.607 119.899C110.764 124.906 105.45 128 99.6927 128H91.0732C85.3154 128 80.0016 124.906 77.159 119.899L72.6746 112H90.7679C96.5257 112 101.839 108.906 104.682 103.899L113.629 88.1396Z" fill="#1da1f2"/>
<path fill-rule="evenodd" clip-rule="evenodd" d="M81.75 16H54.8986C49.1408 16 43.827 19.0937 40.9844 24.1008L27.3333 48.1468L22.6511 39.8992C19.8699 35.0003 19.8699 28.9997 22.6511 24.1008L31.7344 8.10083C34.577 3.09367 39.8908 0 45.6486 0H63.3514C69.1092 0 74.423 3.09367 77.2656 8.10083L81.75 16Z" fill="#1da1f2"/>
<defs>
<filter id="filter0_f" x="19.2314" y="8" width="77.1014" height="64" filterUnits="userSpaceOnUse" color-interpolation-filters="sRGB">
<feFlood flood-opacity="0" result="BackgroundImageFix"/>
<feBlend mode="normal" in="SourceGraphic" in2="BackgroundImageFix" result="shape"/>
<feGaussianBlur stdDeviation="4" result="effect1_foregroundBlur"/>
</filter>
<filter id="filter1_f" x="62.5352" y="72" width="59.0974" height="48" filterUnits="userSpaceOnUse" color-interpolation-filters="sRGB">
<feFlood flood-opacity="0" result="BackgroundImageFix"/>
<feBlend mode="normal" in="SourceGraphic" in2="BackgroundImageFix" result="shape"/>
<feGaussianBlur stdDeviation="4" result="effect1_foregroundBlur"/>
</filter>
</defs>
</svg>
